<svg width="18" height="18" viewBox="0 0 18 18" fill="none" xmlns="http://www.w3.org/2000/svg">
<path d="M13.2105 2.68421C13.2105 2.68421 14.1579 4.57895 13.2105 6.89474M16.1579 1C16.1579 1 18.0526 4.41053 16.1579 8.57895M7.31579 7.73684C7.70284 7.73684 8.08611 7.66061 8.4437 7.51249C8.80129 7.36437 9.12621 7.14727 9.39989 6.87358C9.67358 6.59989 9.89068 6.27497 10.0388 5.91738C10.1869 5.55979 10.2632 5.17653 10.2632 4.78947C10.2632 4.40242 10.1869 4.01916 10.0388 3.66156C9.89068 3.30397 9.67358 2.97906 9.39989 2.70537C9.12621 2.43168 8.80129 2.21458 8.4437 2.06646C8.08611 1.91834 7.70284 1.84211 7.31579 1.84211C6.5341 1.84211 5.78442 2.15263 5.23169 2.70537C4.67895 3.25811 4.36842 4.00778 4.36842 4.78947C4.36842 5.57116 4.67895 6.32084 5.23169 6.87358C5.78442 7.42632 6.5341 7.73684 7.31579 7.73684V7.73684ZM1 16.4947V17H13.6316V16.4947C13.6316 14.6084 13.6316 13.6653 13.2644 12.9444C12.9415 12.3106 12.4262 11.7954 11.7924 11.4724C11.0716 11.1053 10.1284 11.1053 8.24211 11.1053H6.38947C4.50316 11.1053 3.56 11.1053 2.83916 11.4724C2.20538 11.7954 1.69009 12.3106 1.36716 12.9444C1 13.6653 1 14.6084 1 16.4947Z" stroke="white" stroke-width="2" stroke-linecap="round" stroke-linejoin="round"/>
</svg>